<svg xmlns:xlink="http://www.w3.org/1999/xlink" xmlns="http://www.w3.org/2000/svg" class="MuiSvgIcon-root MuiSvgIcon-fontSizeSmall css-18zfaoc" focusable="false" aria-hidden="true" viewBox="0 0 64 64" width="64"  height="64" ><path d="m29 11v14a4 4 0 0 1 -4 4h-14a4 4 0 0 1 -4-4v-14a4 4 0 0 1 4-4h14a4 4 0 0 1 4 4zm24-4h-14a4 4 0 0 0 -4 4v14a4 4 0 0 0 4 4h14a4 4 0 0 0 4-4v-14a4 4 0 0 0 -4-4zm-28 28h-14a4 4 0 0 0 -4 4v14a4 4 0 0 0 4 4h14a4 4 0 0 0 4-4v-14a4 4 0 0 0 -4-4zm21 0a11 11 0 1 0 11 11 11 11 0 0 0 -11-11z" fill="#2B3445"></path></svg>